<?xml version="1.0" encoding="UTF-8"?>
<svg xmlns="http://www.w3.org/2000/svg" width="512" height="512" viewBox="0 0 512 512" fill="none">
  <path d="M119.888 512C186.1 512 239.776 459.031 239.776 393.691C239.776 328.351 186.1 275.383 119.888 275.383C53.6757 275.383 0 328.351 0 393.691C0 459.031 53.6757 512 119.888 512Z" fill="#38AE6A"></path>
  <path d="M392.112 236.617C458.324 236.617 512 183.648 512 118.308C512 52.9685 458.324 0 392.112 0C325.899 0 272.224 52.9685 272.224 118.308C272.224 183.648 325.899 236.617 392.112 236.617Z" fill="#6AB42D"></path>
  <path d="M119.888 236.617C186.1 236.617 239.776 183.648 239.776 118.308C239.776 52.9685 186.1 0 119.888 0C53.6757 0 0 52.9685 0 118.308C0 183.648 53.6757 236.617 119.888 236.617Z" fill="#98C21D"></path>
  <path d="M392.055 512C458.267 512 511.943 459.031 511.943 393.691C511.943 328.351 458.267 275.383 392.055 275.383C325.843 275.383 272.167 328.351 272.167 393.691C272.167 459.031 325.843 512 392.055 512Z" fill="#0C5B7F"></path>
</svg>
